<svg version="1.1" id="Layer_1" xmlns="http://www.w3.org/2000/svg" xmlns:xlink="http://www.w3.org/1999/xlink" x="0px" y="0px"
	 viewBox="0 0 57 57" style="enable-background:new 0 0 57 57;" xml:space="preserve">
<style type="text/css">
	.st0{fill:url(#SVGID_1_);}
</style>
<linearGradient id="SVGID_1_" gradientUnits="userSpaceOnUse" x1="28.5" y1="57" x2="28.5" y2="-9.094947e-13">
	<stop  offset="0" style="stop-color:#CACACA"/>
	<stop  offset="1" style="stop-color:#F6F6F6"/>
</linearGradient>
<path class="st0" d="M28.5,0C12.8,0,0,12.8,0,28.5S12.8,57,28.5,57S57,44.2,57,28.5S44.2,0,28.5,0z M37.2,30L26,41.1
	c-0.8,0.8-2.1,0.9-2.8,0.2c-0.7-0.7-0.6-1.9,0.2-2.8l8.6-8.6c0.8-0.8,0.8-2.2,0-3l-8.6-8.6c-0.8-0.8-0.9-2.1-0.2-2.8
	c0.7-0.7,1.9-0.6,2.8,0.2L37.2,27C38,27.8,38,29.2,37.2,30z"/>
</svg>
