<?xml version="1.0" standalone="no"?>
<!DOCTYPE svg PUBLIC "-//W3C//DTD SVG 20010904//EN"
 "http://www.w3.org/TR/2001/REC-SVG-20010904/DTD/svg10.dtd">
<svg version="1.0" xmlns="http://www.w3.org/2000/svg"
 width="512.000000pt" height="512.000000pt" viewBox="0 0 512.000000 512.000000"
 preserveAspectRatio="xMidYMid meet">
<metadata>
Created by potrace 1.14, written by Peter Selinger 2001-2017
</metadata>
<g transform="translate(0.000000,512.000000) scale(0.100000,-0.100000)"
fill="#000000" stroke="none">
<path d="M0 2560 l0 -2560 2560 0 2560 0 0 2560 0 2560 -2560 0 -2560 0 0
-2560z m2378 1733 l-3 -348 -135 0 -135 0 -3 173 -2 172 -53 -26 c-166 -84
-360 -250 -425 -364 -18 -30 -32 -58 -32 -62 0 -5 234 -8 520 -8 l520 0 0
-135 0 -135 -535 0 -535 0 0 -215 0 -215 -135 0 -135 0 0 200 c0 110 -3 200
-7 200 -5 0 -32 -14 -61 -31 -78 -44 -202 -168 -270 -267 -58 -86 -122 -194
-122 -206 0 -3 286 -6 635 -6 l635 0 2 213 3 212 135 0 135 0 3 -347 2 -348
-950 0 -950 0 0 38 c0 94 73 299 166 464 158 282 373 479 594 548 l55 18 32
87 c42 112 121 230 220 327 95 93 117 111 213 175 183 123 449 230 573 232
l47 1 -2 -347z m572 312 c47 -15 130 -48 185 -74 345 -163 580 -396 661 -653
17 -57 18 -58 73 -74 185 -52 380 -215 532 -441 116 -174 218 -415 234 -555
l7 -58 -351 0 -351 0 0 135 0 135 170 0 c94 0 170 2 170 5 0 3 -12 29 -26 58
-47 93 -134 216 -207 291 -69 71 -186 156 -214 156 -11 0 -13 -91 -13 -520 l0
-520 -135 0 -135 0 0 535 0 535 -212 2 -213 3 -3 133 -3 132 201 0 c161 0 200
3 200 13 0 26 -82 141 -144 202 -33 34 -92 83 -129 109 -70 50 -215 136 -229
136 -5 0 -8 -286 -8 -635 l0 -635 215 0 215 0 0 -135 0 -135 -350 0 -350 0 0
946 0 947 63 -6 c34 -3 100 -18 147 -32z m-1390 -2510 l0 -535 215 0 215 0 0
-135 0 -135 -200 0 c-110 0 -200 -3 -200 -6 0 -4 14 -32 32 -63 70 -124 301
-317 461 -383 16 -7 17 27 17 627 l0 635 -212 2 -213 3 -3 133 -3 132 356 0
355 0 0 -945 0 -945 -42 0 c-129 1 -392 107 -587 238 -111 74 -269 226 -330
317 -49 74 -111 209 -111 243 0 15 -13 23 -61 36 -295 83 -597 433 -734 851
-14 44 -29 108 -32 143 l-6 62 352 0 351 0 0 -135 0 -135 -175 0 -175 0 26
-52 c84 -167 250 -361 364 -426 30 -18 58 -32 63 -32 4 0 7 234 7 520 l0 520
135 0 135 0 0 -535z m3080 237 c0 -94 -73 -299 -166 -464 -158 -282 -373 -479
-594 -548 l-55 -18 -32 -87 c-42 -112 -121 -230 -220 -327 -95 -93 -117 -111
-213 -175 -184 -124 -456 -233 -579 -233 l-41 0 2 348 3 347 135 0 135 0 3
-173 2 -172 53 26 c166 84 360 250 425 364 18 30 32 58 32 63 0 4 -234 7 -520
7 l-520 0 0 135 0 135 535 0 535 0 0 215 0 215 135 0 135 0 0 -200 c0 -110 3
-200 8 -200 4 0 31 14 60 31 78 44 202 168 270 267 58 86 122 194 122 206 0 3
-286 6 -635 6 l-635 0 -2 -212 -3 -213 -135 0 -135 0 -3 348 -2 347 950 0 950
0 0 -38z"/>
</g>
</svg>
