<?xml version="1.0" encoding="UTF-8"?>
<svg version="1.1" xmlns="http://www.w3.org/2000/svg" width="640" height="640">
<path d="M0 0 C211.2 0 422.4 0 640 0 C640 211.2 640 422.4 640 640 C428.8 640 217.6 640 0 640 C0 428.8 0 217.6 0 0 Z M405 62 C402.67897574 62.32575779 400.38786048 62.49479375 398.05078125 62.65625 C395.69570248 62.90710085 395.69570248 62.90710085 393 65 C390.35982365 65.81779841 387.69729409 66.3809489 385 67 C385 67.66 385 68.32 385 69 C383.9275 69.144375 382.855 69.28875 381.75 69.4375 C379.08337051 69.83749442 376.58600271 70.27591924 374 71 C374 71.66 374 72.32 374 73 C372.35 73.33 370.7 73.66 369 74 C369 74.66 369 75.32 369 76 C368.113125 76.268125 367.22625 76.53625 366.3125 76.8125 C363.2090334 77.9250635 360.68889315 79.10195778 358 81 C358 81.66 358 82.32 358 83 C357.443125 83.0825 356.88625 83.165 356.3125 83.25 C353.26322081 84.23895541 351.34810037 85.84757466 349 88 C349 88.66 349 89.32 349 90 C348.278125 90.20625 347.55625 90.4125 346.8125 90.625 C343.17283366 92.40439243 341.4639083 94.82285509 339 98 C338.401875 98.556875 337.80375 99.11375 337.1875 99.6875 C335.66454334 101.07577201 335.66454334 101.07577201 336 104 C334.68 104.66 333.36 105.32 332 106 C332 106.66 332 107.32 332 108 C331.34 108 330.68 108 330 108 C329.67 108.99 329.34 109.98 329 111 C328.01 111.99 328.01 111.99 327 113 C327.33 113.66 327.66 114.32 328 115 C327.01 115.33 326.02 115.66 325 116 C325 116.99 325 117.98 325 119 C324.01 119.33 323.02 119.66 322 120 C320.83239824 122.06148974 320.83239824 122.06148974 319.9375 124.5 C318.20492611 128.89753695 318.20492611 128.89753695 316 130 C314.45171887 133.78468721 313.75987159 136.91781703 314 141 C313.34 141 312.68 141 312 141 C311.67 143.31 311.34 145.62 311 148 C310.34 148 309.68 148 309 148 C307.5216774 150.95664519 307.93967217 153.74229737 308 157 C307.01 157.495 307.01 157.495 306 158 C304.19533017 159.80466983 304.58507442 162.73102816 304.37890625 165.1875 C304.25386719 165.785625 304.12882812 166.38375 304 167 C303.01 167.495 303.01 167.495 302 168 C299.84102618 175.84960236 299.74213195 183.92013444 300 192 C299.34 192 298.68 192 298 192 C297.05862745 194.82411765 296.88274618 196.52918032 296.90234375 199.44921875 C296.90556641 200.29677734 296.90878906 201.14433594 296.91210938 202.01757812 C296.92048828 202.89865234 296.92886719 203.77972656 296.9375 204.6875 C296.94201172 205.58017578 296.94652344 206.47285156 296.95117188 207.39257812 C296.96295017 209.59511987 296.97939836 211.79752599 297 214 C296.34 214 295.68 214 295 214 C293.87070845 219.42098521 293.86288026 224.66614589 293.87974548 230.17453003 C293.87889106 231.19646112 293.87803663 232.2183922 293.87715632 233.2712909 C293.87550991 236.69373653 293.88100919 240.1161331 293.88647461 243.53857422 C293.88675669 245.99262999 293.88659834 248.44668585 293.8860321 250.90074158 C293.88580442 256.18322251 293.88863989 261.46568818 293.89426994 266.74816513 C293.90240469 274.38569322 293.90500219 282.02321535 293.90625793 289.6607473 C293.90844535 302.05280628 293.91509702 314.44485866 293.92456055 326.83691406 C293.93374269 338.87304654 293.9408196 350.90917723 293.94506836 362.9453125 C293.94546244 364.05859084 293.94546244 364.05859084 293.94586449 365.19435965 C293.94716955 368.91776957 293.94843325 372.64117951 293.94967639 376.36458945 C293.96003933 407.24306443 293.97772366 438.12153121 294 469 C288.72 468.67 283.44 468.34 278 468 C278 467.34 278 466.68 278 466 C272.06 466 266.12 466 260 466 C260 466.66 260 467.32 260 468 C258.87980469 468.04898437 257.75960937 468.09796875 256.60546875 468.1484375 C255.13278797 468.22347856 253.66013293 468.29902582 252.1875 468.375 C251.08051758 468.42140625 251.08051758 468.42140625 249.95117188 468.46875 C246.18106885 468.67346148 244.20349259 468.86433827 241 471 C238.35982365 471.81779841 235.69729409 472.3809489 233 473 C233 473.66 233 474.32 233 475 C232.13375 474.95875 231.2675 474.9175 230.375 474.875 C226.87641532 475.00457721 224.25448403 475.76019656 221 477 C221 477.66 221 478.32 221 479 C219.35 479.33 217.7 479.66 216 480 C216 480.66 216 481.32 216 482 C214.02 482.66 212.04 483.32 210 484 C210 484.66 210 485.32 210 486 C209.01 486 208.02 486 207 486 C205.26860218 487.59931772 203.61103537 489.2794999 202 491 C201.11699219 491.85980469 200.23398438 492.71960938 199.32421875 493.60546875 C198.45410156 494.45753906 197.58398438 495.30960937 196.6875 496.1875 C195.36298828 497.47720703 195.36298828 497.47720703 194.01171875 498.79296875 C191.7754504 500.74863355 191.7754504 500.74863355 192 503 C191.34 503 190.68 503 190 503 C188.23537317 506.08809695 188 507.23312136 188 511 C187.01 511.33 186.02 511.66 185 512 C185 513.98 185 515.96 185 518 C184.01 518.33 183.02 518.66 182 519 C182 528.57 182 538.14 182 548 C182.99 548.33 183.98 548.66 185 549 C185 550.98 185 552.96 185 555 C185.99 555.33 186.98 555.66 188 556 C188.144375 556.94875 188.28875 557.8975 188.4375 558.875 C188.82935399 561.8934494 188.82935399 561.8934494 190 564 C190.66 564 191.32 564 192 564 C192.33 565.32 192.66 566.64 193 568 C193.66 568 194.32 568 195 568 C195.4021875 569.2065625 195.4021875 569.2065625 195.8125 570.4375 C196.204375 571.283125 196.59625 572.12875 197 573 C197.99 573.33 198.98 573.66 200 574 C200.33 574.66 200.66 575.32 201 576 C207.68465613 582.38770225 207.68465613 582.38770225 216 585 C216.495 586.485 216.495 586.485 217 588 C218.32 588 219.64 588 221 588 C221.495 589.485 221.495 589.485 222 591 C224.31 591.33 226.62 591.66 229 592 C229 592.66 229 593.32 229 594 C230.155 594.268125 231.31 594.53625 232.5 594.8125 C235.35193325 595.47455593 237.72976516 596.32468079 240.42797852 597.52514648 C245.79883304 599.5426069 251.00841502 599.39490559 256.68359375 599.328125 C257.77970474 599.32625183 258.87581573 599.32437866 260.00514221 599.32244873 C262.30708894 599.31575747 264.60902486 599.30190175 266.91088867 599.28125 C270.45046442 599.24988512 273.98959544 599.2402545 277.52929688 599.234375 C279.76823465 599.22521284 282.00716787 599.21483959 284.24609375 599.203125 C285.30952499 599.19887512 286.37295624 599.19462524 287.46861267 599.19024658 C288.4437532 599.18063904 289.41889374 599.17103149 290.42358398 599.16113281 C291.28547836 599.15430481 292.14737274 599.14747681 293.03538513 599.14044189 C295.0029794 599.21531646 295.0029794 599.21531646 296 598 C298.28684338 597.7180604 300.57363273 597.55222995 302.87109375 597.37890625 C305.20927403 597.17223364 305.20927403 597.17223364 307 595 C308.98821313 594.60235737 310.98944339 594.26224651 313 594 C313 593.34 313 592.68 313 592 C315.31 591.67 317.62 591.34 320 591 C320.33 590.01 320.66 589.02 321 588 C322.05960937 587.85884766 322.05960937 587.85884766 323.140625 587.71484375 C326.51616277 586.87095931 328.8375132 585.45561642 331.75 583.5625 C332.71421875 582.94503906 333.6784375 582.32757812 334.671875 581.69140625 C337.08701816 580.20993044 337.08701816 580.20993044 338 578 C338.5775 577.7525 339.155 577.505 339.75 577.25 C342.03198021 575.98223322 343.0108444 574.93847988 344.625 572.9375 C347 570 347 570 349 569 C349 568.01 349 567.02 349 566 C349.66 566 350.32 566 351 566 C353.43160605 562.63316085 354 561.26649636 354 557 C354.99 556.67 355.98 556.34 357 556 C357.33 553.69 357.66 551.38 358 549 C358.66 549 359.32 549 360 549 C360.33 544.38 360.66 539.76 361 535 C361.66 535 362.32 535 363 535 C363 480.55 363 426.1 363 370 C385.77 370 408.54 370 432 370 C433.41697193 367.16605613 433.11945929 364.79126262 433.11352539 361.62255859 C433.11364593 360.95820108 433.11376646 360.29384357 433.11389065 359.60935402 C433.11314338 357.4556813 433.10552362 355.30209477 433.09765625 353.1484375 C433.09664917 351.83335205 433.09564209 350.5182666 433.09460449 349.16333008 C433.08935828 344.23387789 433.07539712 339.3044381 433.0625 334.375 C433.041875 323.36125 433.02125 312.3475 433 301 C398.845 300.505 398.845 300.505 364 300 C363.95989119 275.07460327 363.95989119 275.07460327 363.95117188 264.43945312 C363.94519709 257.18627184 363.93813319 249.9331032 363.92456055 242.67993164 C363.91368513 236.83146082 363.90771328 230.98300355 363.90512276 225.13452339 C363.90327691 222.90464629 363.89967245 220.67476992 363.89426994 218.44489861 C363.88699778 215.31863687 363.88601167 212.19243096 363.88647461 209.06616211 C363.88287933 208.14690445 363.87928406 207.22764679 363.87557983 206.28053284 C363.88337758 201.40531586 364.20325656 196.8092492 365 192 C365.07066856 190.53389326 365.10903427 189.06542107 365.09765625 187.59765625 C365.09443359 186.85322266 365.09121094 186.10878906 365.08789062 185.34179688 C365.07951172 184.58962891 365.07113281 183.83746094 365.0625 183.0625 C365.05573242 181.89364258 365.05573242 181.89364258 365.04882812 180.70117188 C365.03716908 178.80074732 365.01923877 176.90036294 365 175 C365.66 175 366.32 175 367 175 C367.12117187 174.30132812 367.24234375 173.60265625 367.3671875 172.8828125 C367.61855469 171.51769531 367.61855469 171.51769531 367.875 170.125 C368.11863281 168.76761719 368.11863281 168.76761719 368.3671875 167.3828125 C369 165 369 165 371 163 C371.16681109 159.91652174 371.16681109 159.91652174 371 157 C371.66 156.67 372.32 156.34 373 156 C373.73075648 153.6859378 374.40138258 151.35171131 375 149 C375.66 149 376.32 149 377 149 C378.3606009 147.51363242 378.3606009 147.51363242 379.625 145.625 C380.07101562 144.99851562 380.51703125 144.37203125 380.9765625 143.7265625 C382.16996969 142.04777357 382.16996969 142.04777357 382 140 C382.99 139.67 383.98 139.34 385 139 C385 138.34 385 137.68 385 137 C386.98 136.34 388.96 135.68 391 135 C391 134.34 391 133.68 391 133 C393.475 132.505 393.475 132.505 396 132 C396 131.34 396 130.68 396 130 C402.401594 129.17961409 408.61302501 128.87245487 415.0625 128.9375 C415.92810547 128.94201172 416.79371094 128.94652344 417.68554688 128.95117188 C419.79039539 128.96280087 421.89520758 128.98072927 424 129 C424.07347656 127.87851563 424.07347656 127.87851563 424.1484375 126.734375 C424.26058594 125.25710937 424.26058594 125.25710937 424.375 123.75 C424.44460938 122.77546875 424.51421875 121.8009375 424.5859375 120.796875 C425 118 425 118 426.0078125 116.07421875 C427.43274224 113.0953302 427.35988091 110.34478976 427.5 107.0625 C427.77973093 100.52378943 427.77973093 100.52378943 428.9921875 97.640625 C430.4871804 93.72351181 430.46738028 89.84800394 430.625 85.6875 C430.68300781 84.43356445 430.68300781 84.43356445 430.7421875 83.15429688 C430.83595159 81.10320741 430.91904245 79.05163485 431 77 C431.66 77 432.32 77 433 77 C433.33 72.38 433.66 67.76 434 63 C433.01 62.67 432.02 62.34 431 62 C431 61.34 431 60.68 431 60 C427.79174438 59.94150446 424.58362767 59.90623838 421.375 59.875 C420.47136719 59.85824219 419.56773437 59.84148438 418.63671875 59.82421875 C413.62084696 59.78760655 409.7339379 60.16795904 405 62 Z M258 129 C257.97713513 167.9655683 257.95950254 206.93113572 257.94893467 245.89670938 C257.94768389 250.49193061 257.94638958 255.08715183 257.94506836 259.68237305 C257.94480605 260.59723886 257.94454374 261.51210467 257.94427348 262.45469368 C257.93991647 277.28823186 257.93202875 292.12176617 257.9228472 306.95530205 C257.91351153 322.16414354 257.90794458 337.37298299 257.90591151 352.58182722 C257.9045361 361.97431905 257.90018455 371.36679997 257.89208353 380.75928844 C257.88681714 387.19101176 257.88519546 393.62272941 257.88649862 400.05445474 C257.88714217 403.77095013 257.88612261 407.48742642 257.88079453 411.20391846 C257.87507358 415.22355906 257.87699882 419.24315842 257.87974548 423.26280212 C257.87683264 424.45051946 257.8739198 425.6382368 257.87091869 426.86194557 C257.87290974 427.92985566 257.87490079 428.99776576 257.87695217 430.09803677 C257.87657245 431.02721241 257.87619273 431.95638806 257.8758015 432.91372055 C257.76770113 434.98898003 257.76770113 434.98898003 259 436 C261.30901696 436.15179378 263.62367069 436.22181122 265.9375 436.25 C267.20464844 436.27578125 268.47179687 436.3015625 269.77734375 436.328125 C270.84082031 436.21984375 271.90429688 436.1115625 273 436 C275.20008486 432.69987271 275.24979552 431.73333813 275.24888897 427.90158653 C275.25578716 426.31034857 275.25578716 426.31034857 275.26282471 424.68696439 C275.25768115 423.5174277 275.25253759 422.34789101 275.24723816 421.14291382 C275.25085978 419.28415271 275.25085978 419.28415271 275.25455457 417.38784087 C275.2592265 413.94179219 275.25488877 410.49596483 275.24679029 407.04993629 C275.24022438 403.33622988 275.24515931 399.6225368 275.24867249 395.90882874 C275.25371969 388.6316936 275.24806656 381.35460384 275.23882218 374.07747434 C275.22845184 365.61058703 275.228508 357.1437096 275.22899476 348.67681713 C275.22949565 333.57555078 275.22032625 318.47430559 275.20581055 303.37304688 C275.1917176 288.70409764 275.18463996 274.03516703 275.18530273 259.36621094 C275.18534269 258.46250485 275.18538265 257.55879876 275.18542381 256.62770765 C275.18546417 255.7255959 275.18550452 254.82348416 275.1855461 253.8940357 C275.18623512 237.21414098 275.18035124 220.53425421 275.17139288 203.85436206 C275.16837091 197.94570742 275.16731266 192.03705423 275.16686058 186.1283989 C275.16617995 178.93409792 275.1617362 171.73981033 275.15252777 164.54551505 C275.14789644 160.87153219 275.14486917 157.19756652 275.14612198 153.52358055 C275.14741127 149.55007975 275.14099576 145.57661378 275.13371277 141.6031189 C275.13526137 140.42912076 275.13680997 139.25512263 275.1384055 138.0455488 C275.13518106 136.98993899 275.13195661 135.93432917 275.12863445 134.84673119 C275.12793003 133.92829504 275.1272256 133.0098589 275.12649983 132.06359136 C275.22923142 130.00839244 275.22923142 130.00839244 274 129 C271.30345146 128.92680379 268.63308542 128.90757463 265.9375 128.9375 C264.79958008 128.94426758 264.79958008 128.94426758 263.63867188 128.95117188 C261.75908129 128.9629932 259.87953101 128.98092922 258 129 Z M210 211 C210 211.66 210 212.32 210 213 C209.01 213.33 208.02 213.66 207 214 C204.15421258 216.27662994 203.11748811 218.56301977 202 222 C201.64672215 225.64147643 201.64672215 225.64147643 201.6875 229.5 C201.67074219 230.7890625 201.65398437 232.078125 201.63671875 233.40625 C202.01448215 237.14326431 202.68608086 239.07241374 205 242 C205.66 242 206.32 242 207 242 C207.226875 242.598125 207.45375 243.19625 207.6875 243.8125 C209.40806668 246.68011113 210.96531888 247.62059949 214 249 C217.20916171 249.25136033 217.20916171 249.25136033 220 249 C220 249.66 220 250.32 220 251 C221.32 251 222.64 251 224 251 C224 250.34 224 249.68 224 249 C225.03125 249.0825 226.0625 249.165 227.125 249.25 C232.44021163 248.90708312 235.30645522 246.69354478 239 243 C239 242.01 239 241.02 239 240 C239.66 240 240.32 240 241 240 C241.50757862 238.58603098 242.00574925 237.16868271 242.5 235.75 C242.7784375 234.96109375 243.056875 234.1721875 243.34375 233.359375 C244.17864861 230.76587262 244.17864861 230.76587262 244 227 C243.34 227 242.68 227 242 227 C242.04125 225.9275 242.0825 224.855 242.125 223.75 C242.0114175 220.34252515 241.78726636 218.79260369 240 216 C239.34 216 238.68 216 238 216 C237.505 214.515 237.505 214.515 237 213 C236.34 213 235.68 213 235 213 C235 212.34 235 211.68 235 211 C231.11547511 208.39654183 226.99486196 208.70421193 222.5 208.75 C221.74074219 208.74226562 220.98148438 208.73453125 220.19921875 208.7265625 C216.33207722 208.74010765 213.27208646 208.80700588 210 211 Z M214 337 C214 337.66 214 338.32 214 339 C212.68 339.33 211.36 339.66 210 340 C210 340.66 210 341.32 210 342 C208.02 342.99 208.02 342.99 206 344 C206 344.66 206 345.32 206 346 C205.34 346 204.68 346 204 346 C201.95281825 350.24117335 201.70155211 353.81596288 201.6875 358.5 C201.67074219 359.7890625 201.65398437 361.078125 201.63671875 362.40625 C202.01448215 366.14326431 202.68608086 368.07241374 205 371 C205.66 371 206.32 371 207 371 C207.226875 371.598125 207.45375 372.19625 207.6875 372.8125 C209.84811924 376.41353207 212.50617568 377.60566749 216.515625 378.6640625 C219.01275564 379.19916192 221.46133814 379.71792646 224 380 C224.33 379.67 224.66 379.34 225 379 C227.32817964 378.63239269 229.6618385 378.29758419 232 378 C232.33 377.01 232.66 376.02 233 375 C233.61875 374.855625 234.2375 374.71125 234.875 374.5625 C237.7073715 373.8127546 238.44987517 372.40269349 240 370 C239.67 369.34 239.34 368.68 239 368 C239.99 367.67 240.98 367.34 242 367 C243.39044898 363.12137916 244 360.13537997 244 356 C243.34 356 242.68 356 242 356 C242.020625 354.88625 242.04125 353.7725 242.0625 352.625 C242.26380718 349.16784079 242.26380718 349.16784079 241 347 C240.34 347 239.68 347 239 347 C238.8453125 346.0409375 238.8453125 346.0409375 238.6875 345.0625 C238.460625 344.381875 238.23375 343.70125 238 343 C237.01 342.67 236.02 342.34 235 342 C235 341.34 235 340.68 235 340 C230.82509198 336.59913804 226.83703989 336.63302542 221.6875 336.8125 C220.57665039 336.83280273 220.57665039 336.83280273 219.44335938 336.85351562 C217.62858925 336.88864021 215.81419712 336.94244028 214 337 Z " fill="#CC3535" transform="translate(0,0)"/>
</svg>
