<?xml version="1.0" encoding="UTF-8"?>
<!DOCTYPE svg PUBLIC "-//W3C//DTD SVG 1.1//EN" "http://www.w3.org/Graphics/SVG/1.1/DTD/svg11.dtd">
<svg xmlns="http://www.w3.org/2000/svg" version="1.1" width="515px" height="78px" style="shape-rendering:geometricPrecision; text-rendering:geometricPrecision; image-rendering:optimizeQuality; fill-rule:evenodd; clip-rule:evenodd" xmlns:xlink="http://www.w3.org/1999/xlink">
<g><path style="opacity:0.798" fill="#0e3ea9" d="M 442.5,6.5 C 443.833,6.5 445.167,6.5 446.5,6.5C 446.667,21.837 446.5,37.1703 446,52.5C 442.178,58.0408 437.011,59.8741 430.5,58C 426.969,47.2649 430.969,41.7649 442.5,41.5C 442.5,29.8333 442.5,18.1667 442.5,6.5 Z M 441.5,45.5 C 442.097,45.7352 442.43,46.2352 442.5,47C 440.822,50.7635 437.989,53.2635 434,54.5C 433.5,54.1667 433,53.8333 432.5,53.5C 434.949,50.0412 437.949,47.3745 441.5,45.5 Z"/></g>
<g><path style="opacity:0.719" fill="#0e3ea9" d="M 84.5,7.5 C 92.7984,6.46425 97.1317,10.1309 97.5,18.5C 96.5,18.5 95.5,18.5 94.5,18.5C 94.0264,12.9241 91.0264,10.7574 85.5,12C 83.2507,13.7455 81.5841,15.9121 80.5,18.5C 78.7541,13.6667 80.0874,9.99999 84.5,7.5 Z"/></g>
<g><path style="opacity:0.734" fill="#0e3ea9" d="M 461.5,7.5 C 470.348,6.34671 474.015,10.0134 472.5,18.5C 467.5,9.16667 462.5,9.16667 457.5,18.5C 455.754,13.6667 457.087,9.99999 461.5,7.5 Z"/></g>
<g><path style="opacity:0.629" fill="#0e3ea9" d="M 86.5,14.5 C 87.8333,14.5 89.1667,14.5 90.5,14.5C 90.1144,18.7376 88.4477,19.4043 85.5,16.5C 85.8627,15.8165 86.1961,15.1499 86.5,14.5 Z"/></g>
<g><path style="opacity:0.587" fill="#0e3ea9" d="M 462.5,14.5 C 464.167,14.5 465.833,14.5 467.5,14.5C 467.65,18.1612 466.15,19.1612 463,17.5C 462.517,16.552 462.351,15.552 462.5,14.5 Z"/></g>
<g><path style="opacity:0.825" fill="#0e3ea9" d="M 175.5,17.5 C 176.833,17.5 178.167,17.5 179.5,17.5C 179.5,27.1667 179.5,36.8333 179.5,46.5C 186.429,45.581 188.595,48.2477 186,54.5C 184.406,56.2971 182.406,57.2971 180,57.5C 177.483,56.4931 174.983,55.3264 172.5,54C 170.961,50.6589 169.794,47.1589 169,43.5C 166.036,41.8387 163.036,40.1721 160,38.5C 158.964,35.2473 158.297,31.914 158,28.5C 157.5,39.8284 157.333,51.1618 157.5,62.5C 156.167,62.5 154.833,62.5 153.5,62.5C 153.666,52.1613 153.5,41.828 153,31.5C 151,32.8333 149,32.8333 147,31.5C 145.5,23.6667 148.667,20.5 156.5,22C 157.834,24.0871 159.667,25.5871 162,26.5C 162.956,30.2448 164.123,33.9115 165.5,37.5C 168.125,38.7639 170.792,39.9305 173.5,41C 174.126,41.7504 174.626,42.5838 175,43.5C 175.5,34.8397 175.666,26.1731 175.5,17.5 Z"/></g>
<g><path style="opacity:0.862" fill="#0e3ea9" d="M 363.5,17.5 C 364.376,17.3691 365.043,17.7025 365.5,18.5C 364.167,22.1667 362.833,25.8333 361.5,29.5C 364.044,29.9491 366.71,29.9491 369.5,29.5C 369.703,31.3904 369.037,32.8904 367.5,34C 364.313,34.0006 361.48,34.8339 359,36.5C 357.167,41.5 355.333,46.5 353.5,51.5C 354.365,52.5827 355.365,52.7494 356.5,52C 360.852,50.4772 364.519,47.9772 367.5,44.5C 367.833,45.1667 368.167,45.8333 368.5,46.5C 364.224,54.619 357.558,58.119 348.5,57C 345.71,54.7897 344.877,51.9563 346,48.5C 347.611,43.8348 349.111,39.1681 350.5,34.5C 346.774,34.8226 343.107,34.4892 339.5,33.5C 339.977,32.5224 340.643,31.6891 341.5,31C 345.211,30.8253 348.878,30.3253 352.5,29.5C 353.502,27.4899 354.502,25.4899 355.5,23.5C 358.492,21.8288 361.159,19.8288 363.5,17.5 Z"/></g>
<g><path style="opacity:0.798" fill="#0e3ea9" d="M 12.5,47.5 C 9.86519,50.079 7.69852,53.079 6,56.5C 4.98873,57.3366 3.82207,57.67 2.5,57.5C 4.40283,51.748 7.40283,46.5813 11.5,42C 5.49571,39.8325 1.82904,35.6658 0.5,29.5C 1.891,22.1391 6.22433,19.3058 13.5,21C 17.1655,22.668 19.3322,25.5013 20,29.5C 21.944,25.8901 24.2774,22.5568 27,19.5C 27.9246,20.0465 28.7579,20.7132 29.5,21.5C 26.3618,26.4709 23.0285,31.3042 19.5,36C 25.2873,38.1181 28.9539,42.1181 30.5,48C 28.0918,57.7833 22.5918,59.9499 14,54.5C 12.7978,52.3225 12.2978,49.9892 12.5,47.5 Z M 7.5,24.5 C 9.16667,24.5 10.8333,24.5 12.5,24.5C 11.2914,30.0986 13.2914,32.5986 18.5,32C 17.2986,32.9025 16.4652,34.0692 16,35.5C 12.6559,33.9961 9.6559,31.9961 7,29.5C 6.36026,27.735 6.52692,26.0683 7.5,24.5 Z M 12.5,47.5 C 12.9651,44.5266 14.6318,43.3599 17.5,44C 19.7463,45.0395 21.913,46.2062 24,47.5C 25.5833,52.1004 24.0833,53.9337 19.5,53C 18.8333,51 18.1667,49 17.5,47C 15.735,46.3603 14.0683,46.5269 12.5,47.5 Z"/></g>
<g><path style="opacity:0.799" fill="#0e3ea9" d="M 325.5,19.5 C 326.643,19.9081 327.643,20.5748 328.5,21.5C 325.362,26.4709 322.028,31.3042 318.5,36C 321.418,37.7088 324.252,39.5421 327,41.5C 331.812,51.7211 328.646,56.8878 317.5,57C 312.996,55.5078 310.83,52.3411 311,47.5C 308.752,50.328 306.752,53.328 305,56.5C 303.989,57.3366 302.822,57.67 301.5,57.5C 303.827,52.0227 306.827,46.856 310.5,42C 306.759,40.2621 303.592,37.7621 301,34.5C 298.5,24.3431 302.334,19.8431 312.5,21C 316.165,22.668 318.332,25.5013 319,29.5C 320.996,26.0142 323.163,22.6809 325.5,19.5 Z M 306.5,24.5 C 308.167,24.5 309.833,24.5 311.5,24.5C 310.291,30.0986 312.291,32.5986 317.5,32C 316.299,32.9025 315.465,34.0692 315,35.5C 311.656,33.9961 308.656,31.9961 306,29.5C 305.616,27.8034 305.782,26.1368 306.5,24.5 Z M 312.5,46.5 C 312.418,44.7483 313.251,43.7483 315,43.5C 317.56,44.53 320.06,45.6966 322.5,47C 324.756,52.261 323.256,54.0943 318,52.5C 317.505,50.5273 317.338,48.5273 317.5,46.5C 315.833,46.5 314.167,46.5 312.5,46.5 Z"/></g>
<g><path style="opacity:0.842" fill="#0e3ea9" d="M 54.5,22.5 C 62.691,22.0455 67.691,25.7122 69.5,33.5C 68.8008,38.8571 65.8008,40.6904 60.5,39C 56.3129,34.5397 56.9796,30.8731 62.5,28C 58.9211,25.7352 55.7545,26.2352 53,29.5C 51.4725,35.4149 51.1392,41.4149 52,47.5C 53.5905,53.4197 57.0905,54.9197 62.5,52C 65.2598,48.8149 66.9264,45.1483 67.5,41C 70.7743,50.1776 67.1076,55.6776 56.5,57.5C 44.0993,54.2344 39.5993,46.2344 43,33.5C 45.4373,28.2262 49.2706,24.5595 54.5,22.5 Z"/></g>
<g><path style="opacity:0.825" fill="#0e3ea9" d="M 210.5,22.5 C 218.631,22.0525 223.631,25.7192 225.5,33.5C 224.655,38.8439 221.655,40.6773 216.5,39C 212.133,34.4982 212.799,30.8315 218.5,28C 214.921,25.7352 211.754,26.2352 209,29.5C 206.892,35.7836 206.559,42.117 208,48.5C 211.478,54.7271 215.478,55.0605 220,49.5C 221.548,46.7937 222.714,43.9603 223.5,41C 223.833,40.8333 224.167,40.6667 224.5,40.5C 226.198,50.0854 222.198,55.7521 212.5,57.5C 202.722,55.8817 197.722,50.0484 197.5,40C 197.629,30.865 201.962,25.0316 210.5,22.5 Z"/></g>
<g><path style="opacity:0.778" fill="#0e3ea9" d="M 83.5,23.5 C 86.5,23.5 89.5,23.5 92.5,23.5C 92.5,34.5 92.5,45.5 92.5,56.5C 89.5,56.5 86.5,56.5 83.5,56.5C 83.5,45.5 83.5,34.5 83.5,23.5 Z"/></g>
<g><path style="opacity:0.852" fill="#0e3ea9" d="M 109.5,23.5 C 118.5,23.5 127.5,23.5 136.5,23.5C 136.5,25.5 136.5,27.5 136.5,29.5C 128.5,29.5 120.5,29.5 112.5,29.5C 112.5,31.8333 112.5,34.1667 112.5,36.5C 120.5,36.5 128.5,36.5 136.5,36.5C 136.5,38.5 136.5,40.5 136.5,42.5C 128.5,42.5 120.5,42.5 112.5,42.5C 112.5,45.1667 112.5,47.8333 112.5,50.5C 120.5,50.5 128.5,50.5 136.5,50.5C 136.5,52.5 136.5,54.5 136.5,56.5C 128.5,56.5 120.5,56.5 112.5,56.5C 112.665,60.1817 112.499,63.8484 112,67.5C 107.214,72.0044 103.381,71.5044 100.5,66C 101.716,61.2748 104.716,59.1082 109.5,59.5C 109.5,47.5 109.5,35.5 109.5,23.5 Z"/></g>
<g><path style="opacity:0.848" fill="#0e3ea9" d="M 238.5,23.5 C 247.5,23.5 256.5,23.5 265.5,23.5C 265.5,25.5 265.5,27.5 265.5,29.5C 257.5,29.5 249.5,29.5 241.5,29.5C 241.5,31.8333 241.5,34.1667 241.5,36.5C 249.5,36.5 257.5,36.5 265.5,36.5C 265.5,38.5 265.5,40.5 265.5,42.5C 257.5,42.5 249.5,42.5 241.5,42.5C 241.5,45.1667 241.5,47.8333 241.5,50.5C 249.5,50.5 257.5,50.5 265.5,50.5C 265.5,52.5 265.5,54.5 265.5,56.5C 257.5,56.5 249.5,56.5 241.5,56.5C 242.539,61.8492 241.205,66.3492 237.5,70C 229.576,71.7708 227.409,68.9375 231,61.5C 233.228,59.8866 235.728,59.22 238.5,59.5C 238.5,47.5 238.5,35.5 238.5,23.5 Z"/></g>
<g><path style="opacity:0.8" fill="#0e3ea9" d="M 460.5,23.5 C 463.5,23.5 466.5,23.5 469.5,23.5C 469.5,34.5 469.5,45.5 469.5,56.5C 466.5,56.5 463.5,56.5 460.5,56.5C 460.5,45.5 460.5,34.5 460.5,23.5 Z"/></g>
<g><path style="opacity:0.86" fill="#0e3ea9" d="M 514.5,38.5 C 514.5,39.1667 514.5,39.8333 514.5,40.5C 511.782,47.1369 506.616,50.4703 499,50.5C 488.976,50.1522 484.309,45.1522 485,35.5C 488.188,30.6576 492.688,28.6576 498.5,29.5C 506.304,28.4114 511.637,31.4114 514.5,38.5 Z M 497.5,31.5 C 501.777,33.3607 504.11,36.694 504.5,41.5C 501.657,49.2042 498.491,49.2042 495,41.5C 494.333,38.8333 494.333,36.1667 495,33.5C 495.995,32.9341 496.828,32.2674 497.5,31.5 Z"/></g>
<g><path style="opacity:0.811" fill="#0e3ea9" d="M 25.5,31.5 C 31.5548,30.9421 32.8881,33.1088 29.5,38C 28.1011,38.5946 26.7678,38.4279 25.5,37.5C 24.3058,35.4844 24.3058,33.4844 25.5,31.5 Z"/></g>
<g><path style="opacity:0.791" fill="#0e3ea9" d="M 324.5,31.5 C 329.895,30.5548 331.561,32.5548 329.5,37.5C 324.193,38.7947 322.526,36.7947 324.5,31.5 Z"/></g>
<g><path style="opacity:0.839" fill="#0e3ea9" d="M 379.5,31.5 C 380.496,31.4142 381.329,31.7476 382,32.5C 385.801,46.15 394.301,50.3167 407.5,45C 409.667,43.5 411.5,41.6667 413,39.5C 413.576,36.4591 414.742,33.7925 416.5,31.5C 419.1,43.1316 414.766,50.9649 403.5,55C 391.856,57.0958 384.023,52.5958 380,41.5C 379.502,38.1832 379.335,34.8499 379.5,31.5 Z"/></g>
<g><path style="opacity:0.773" fill="#0e3ea9" d="M -0.5,45.5 C -0.5,44.5 -0.5,43.5 -0.5,42.5C 2.85088,39.5053 5.51755,40.0053 7.5,44C 5.51755,47.9947 2.85088,48.4947 -0.5,45.5 Z"/></g>
<g><path style="opacity:0.776" fill="#0e3ea9" d="M 300.5,40.5 C 306.016,40.4734 307.349,42.64 304.5,47C 298.738,47.4178 297.404,45.2511 300.5,40.5 Z"/></g>
</svg>
