<?xml version="1.0" encoding="utf-8"?>
<!-- Generator: Adobe Illustrator 23.0.1, SVG Export Plug-In . SVG Version: 6.00 Build 0)  -->
<svg version="1.1" id="Layer_1" xmlns="http://www.w3.org/2000/svg" xmlns:xlink="http://www.w3.org/1999/xlink" x="0px" y="0px"
	 viewBox="0 0 426.9 90" style="enable-background:new 0 0 426.9 90;" xml:space="preserve">
<style type="text/css">
	.st0{fill:#0DFCBD;}
</style>
<title>rs_logo_old_white</title>
<path class="st0" d="M0,13.2h4.9v6.4L5.3,20c2.5-5.1,5.8-8.8,12-7.7v4.9c-1.6,0.2-3.1,0.6-4.6,1c-4.2,1.4-7.1,6-7.1,11.3
	c0,6.2,0,12.4,0,18.7l-5.6,0.4L0,13.2z"/>
<path class="st0" d="M196.4,1.1h78.8v6.1h-73.5c-4.7,27.7-9.4,55.2-14,82.7l-0.4,0.1l-13.7-31.3c2.2,0,4-0.1,5.8,0.1
	c0.6,0.1,1.2,0.8,1.5,1.4c1.3,2.8,2.5,5.6,4.1,8.3C188.8,46.1,192.5,23.7,196.4,1.1z"/>
<path class="st0" d="M426.9,1.2v5.8H291.6V1.2H426.9z"/>
<path class="st0" d="M123.3,13.2l-5.7,6.5c-1.7,2-3.5,3.9-5.3,6c4.1,7.6,8.2,15.1,12.5,23c-1.5,0-2.6-0.1-3.7,0
	c-1.4,0.3-2.7-0.5-3.1-1.8c-3-5.9-6.1-11.7-9.3-17.9c-2.5,2.8-4.9,5.5-7.1,8.3c-0.3,0.6-0.4,1.3-0.3,2c0,3,0,6.1,0,9.2h-5.6V1h5.4
	v30c0.8-0.7,1.2-1.1,1.6-1.5c4.2-4.6,8.4-9.1,12.4-13.8c1.6-1.9,3.2-2.8,5.6-2.4C121.5,13.2,122.4,13.2,123.3,13.2z"/>
<path class="st0" d="M52.7,30.7c0,3.9-1,7.6-2.9,11c-3.4,5.6-8.4,8.1-14.9,7.7s-10.3-4.1-12.5-9.8c-2.1-5.2-2.3-11-0.5-16.3
	c2-6.8,8.3-11.4,15.4-11.1c7.7,0.4,13.1,5.2,14.7,13C52.4,27,52.5,28.9,52.7,30.7z M46.9,30.8c-0.3-2.5-0.8-5-1.5-7.4
	c-1.2-3.9-4.7-6.5-8.8-6.5c-4.1,0-7.6,2.8-8.6,6.7c-1.5,4.8-1.5,9.9,0.1,14.7c1.1,3.8,4.5,6.4,8.5,6.5c4,0,7.5-2.6,8.6-6.4
	C45.9,35.9,46.5,33.4,46.9,30.8z"/>
<path class="st0" d="M206,39.3l4.9-1c3.9,5.9,8.5,7.9,14.5,6.1c1.5-0.5,2.8-1.3,3.9-2.5c2.2-2.5,1-6.2-2.4-7.3
	c-3.1-1-6.4-1.4-9.5-2.2c-1.4-0.3-2.8-0.7-4.1-1.2c-4.8-1.9-7.2-7.3-5.3-12.1c0.6-1.5,1.6-2.9,2.9-3.9c5-4.3,15.9-4.1,20.6,0.6
	c1.4,1.4,2.3,3.3,3.6,5.3c-1.4,0.4-2.8,0.8-4.2,1c-0.7,0-1.4-0.3-1.8-0.8c-2.9-4.3-8.6-5.7-13.2-3.4c-1.7,0.7-2.8,2.4-2.7,4.2
	c-0.1,1.9,1.2,3.5,3,4c3.1,0.8,6.4,1.4,9.6,2.1c1.3,0.2,2.5,0.6,3.7,1c3.9,1.5,6.4,4.1,6.8,8.4c0.6,4.3-1.8,8.4-5.8,10
	c-5.7,2.7-12.3,2.7-17.9-0.1C209,45.9,207.1,43.1,206,39.3z"/>
<path class="st0" d="M334,18.1v30.4h-5.3V13.3h27.5v35.1h-5V18.1H334z"/>
<path class="st0" d="M155.8,48.5h-26c-0.4-2.5-0.6-4.7,1.6-6.8c3.7-3.5,7.1-7.4,11-11.6c-3.7-3.5-7.2-6.9-10.9-10.2
	c-2.2-2-2.2-4.2-1.8-6.8h26v4.7h-19.4L149,30.2l-12.6,13.4h19.4V48.5z"/>
<path class="st0" d="M301.2,18.5l12.3,11.8l-12.6,13.3h19.4v4.9h-25.9c-0.4-2.7-0.3-5,2-7.1c3.6-3.3,6.8-7.1,10.2-10.8
	c-3.4-3.4-6.6-7-10.1-10.2c-2.3-2-2.7-4.3-2.1-7.1h26v4.6h-18.9L301.2,18.5z"/>
<path class="st0" d="M413.7,30c-3.6-3.3-7-6.5-10.6-9.5c-2.4-2-2.8-4.2-2.2-7.1h25.9v4.6h-19.4l12.3,12.6l-12.4,13.2h19.4v4.8h-26
	c-0.1-2.3-0.6-4.5,1.5-6.5C406.1,38.4,409.4,34.5,413.7,30z"/>
<path class="st0" d="M392.6,24.6l-4.7,0.9c-0.4-1.1-0.7-2.1-1-3.2c-1.2-3.2-3.3-5.3-6.9-5.5c-3.3-0.4-6.5,1.3-7.9,4.4
	c-3,6-3,13.1-0.1,19.1c1.3,2.9,4.2,4.7,7.4,4.4c3.1-0.1,5.8-2,6.9-4.9c0.5-1.2,0.9-2.4,1.4-3.8l4.6,0.7c-0.1,7.7-7.3,13.5-15.2,12.6
	c-4.6-0.6-8.3-2.8-10.3-7c-4.1-8.4-4.2-16.8,1.1-24.7c3.3-4.9,9.2-6.7,15.1-5C388.4,14.1,392,18.6,392.6,24.6z"/>
<path class="st0" d="M87.5,24.6l-4.8,0.9c-0.4-1.2-0.7-2.4-1.1-3.5c-1.2-3-3.2-4.8-6.4-5.1s-6.2,0.8-7.8,3.7
	c-3.6,6.7-3.5,13.5-0.2,20.2c1.4,2.8,4.1,4.1,7.3,3.9c2.9-0.1,5.5-1.9,6.7-4.6c0.6-1.3,1-2.6,1.6-4.1l4.7,0.8
	c-0.5,6-4.7,11-9.9,12.2c-6.3,1.4-12.2-0.6-15.2-5.8c-4.7-8.2-4.7-16.6,0.1-24.7c3.1-5.3,9.1-7.4,15.2-5.9
	C82.9,13.8,86.7,18.3,87.5,24.6z"/>
<path class="st0" d="M272,24.6l-4.7,0.9c-0.5-1.4-0.8-2.7-1.4-4c-1-2.7-3.6-4.5-6.5-4.6c-3-0.3-5.9,1.1-7.4,3.7
	c-2.1,3.6-3,7.8-2.5,11.9c0.2,2.5,0.8,5.1,1.8,7.4c1.1,3.2,4.2,5.2,7.5,5c3.6-0.1,6-2,7.3-5.3c0.4-1,0.8-2.1,1.2-3.4l4.5,0.7
	c0.6,5-4.3,11.1-9.9,12.3c-7.2,1.6-13.4-1.3-16.2-8.1c-3.3-8.1-3.2-16.2,2.1-23.5c3.3-4.7,9.6-6.4,15.5-4.6
	C268.3,14.8,271.7,19.4,272,24.6z"/>
<path class="st0" d="M180.9,43.7v4.8h-13.3V18h-5.9v-4.7h5.8V3h5.5v10h7.9v4.9h-7.7v25.8H180.9z"/>
<path class="st0" d="M280.7,13.3h5.4v35.2h-5.4V13.3z"/>
<path class="st0" d="M279.2,4.2C279.1,2,280.8,0.1,283,0c0.1,0,0.2,0,0.3,0c2.3-0.1,4.2,1.7,4.3,3.9c0,0,0,0,0,0.1
	c0.1,2.4-1.8,4.3-4.2,4.4c0,0,0,0-0.1,0C281.1,8.4,279.2,6.5,279.2,4.2z"/>
</svg>
