<svg version="1.1" id="Layer_1" xmlns="http://www.w3.org/2000/svg" xmlns:xlink="http://www.w3.org/1999/xlink" x="0px" y="0px"
	 viewBox="0 0 14 14" style="enable-background:new 0 0 14 14;" xml:space="preserve">
<style type="text/css">
	.st0{fill:#1E324A;}
</style>
<g>
	<path class="st0" d="M0.4,7.8C0.4,7.8,0.4,7.8,0.4,7.8c0.1-0.3,0.3-0.5,0.5-0.7l2.6-2.6c0,0,0,0,0,0C3.9,4.2,4.3,4,4.7,3.8
		C4.2,4.4,3.9,5,3.8,5.8c0,0.2-0.1,0.4-0.1,0.7c0,0.1,0,0.2,0,0.3L2.1,8.3C1.9,8.5,1.8,8.7,1.8,8.9c0,0.1,0,0.2,0,0.3
		c0,0.1,0,0.3,0.1,0.4c0.1,0.2,0.2,0.4,0.3,0.5l1.1,1.1c0.2,0.2,0.5,0.4,0.9,0.4c0.3,0,0.6-0.1,0.9-0.4l1-1l0.7-0.7l0.9-0.9
		c0.1-0.1,0.2-0.2,0.2-0.3C7.8,8,7.8,7.8,7.8,7.7c0-0.1,0-0.2-0.1-0.4c0,0,0,0,0,0l0,0c0,0,0-0.1,0-0.1c0,0,0,0,0-0.1
		c0,0,0-0.1-0.1-0.1l0,0c0,0,0,0,0,0c0-0.1-0.1-0.1-0.1-0.1L7.1,6.4c0,0,0-0.1,0-0.1c0,0,0-0.1,0.1-0.1l0.9-0.9l0.1-0.1l0.5,0.5
		c0,0,0.1,0.1,0.1,0.1c0,0,0,0,0,0l0,0c0,0,0.1,0.1,0.1,0.1c0,0,0,0,0,0l0,0C9,6,9,6.1,9.1,6.1l0,0c0,0,0,0,0,0
		c0,0.1,0.1,0.1,0.1,0.2l0,0l0,0c0.1,0.2,0.2,0.4,0.2,0.6c0,0.1,0,0.1,0,0.2c0,0.2,0.1,0.4,0.1,0.6c0,0.2,0,0.3,0,0.5
		C9.4,8.7,9.1,9.3,8.7,9.7l-0.5,0.5L7.3,11l-1.3,1.3c-1.1,1.1-3,1.1-4.1,0l-1.1-1.1c-0.4-0.4-0.6-0.8-0.8-1.3
		C0.1,9.7,0.1,9.4,0.1,9.2C0.1,8.8,0.2,8.3,0.4,7.8C0.4,7.9,0.4,7.9,0.4,7.8C0.4,7.9,0.4,7.9,0.4,7.8C0.4,7.9,0.4,7.8,0.4,7.8z"/>
	<path class="st0" d="M5.3,4.3l0.5-0.5L6.7,3L8,1.7c1.1-1.1,3-1.1,4.1,0l1.1,1.1c0.4,0.4,0.6,0.8,0.8,1.3C13.9,4.4,14,4.6,14,4.8
		c0,0.5-0.1,0.9-0.3,1.3c0,0,0,0,0,0c0,0,0,0,0,0c0,0,0,0,0,0c0,0,0,0,0,0c-0.1,0.2-0.3,0.5-0.5,0.7l-2.6,2.6c0,0,0,0,0,0
		c-0.3,0.3-0.7,0.6-1.2,0.7c0.5-0.5,0.8-1.2,1-1.9c0-0.2,0.1-0.4,0.1-0.7c0-0.1,0-0.2,0-0.3l1.6-1.6c0.1-0.1,0.2-0.3,0.3-0.5
		c0-0.1,0-0.2,0-0.3c0-0.1,0-0.3-0.1-0.4c-0.1-0.2-0.2-0.4-0.3-0.5l-1.1-1.1c-0.5-0.5-1.3-0.5-1.7,0l-1,1L7.5,4.6L6.5,5.5
		C6.4,5.6,6.4,5.7,6.3,5.9C6.2,6,6.2,6.2,6.2,6.4c0,0.1,0,0.2,0.1,0.4c0,0,0,0,0,0l0,0c0,0,0,0.1,0,0.1c0,0,0,0,0,0.1
		c0,0,0,0.1,0.1,0.1l0,0c0,0,0,0,0,0c0,0.1,0.1,0.1,0.1,0.1l0.4,0.4c0,0,0,0.1,0,0.1c0,0,0,0.1-0.1,0.1L5.9,8.8L5.8,8.9L5.3,8.4
		c0,0-0.1-0.1-0.1-0.1c0,0,0,0,0,0l0,0c0,0-0.1-0.1-0.1-0.1c0,0,0,0,0,0C5,8,5,8,5,8l0,0l0,0c0-0.1-0.1-0.1-0.1-0.2l0,0l0,0
		C4.7,7.6,4.7,7.4,4.6,7.2c0-0.1,0-0.1,0-0.2c0-0.2-0.1-0.4-0.1-0.6c0-0.2,0-0.3,0-0.5C4.7,5.3,4.9,4.8,5.3,4.3z"/>
</g>
</svg>
